<svg width="20" height="20" viewBox="0 0 20 20" fill="none" xmlns="http://www.w3.org/2000/svg">
<rect width="20" height="20" rx="10" fill="#FFA300"/>
<path d="M5 9H7C8.10457 9 9 9.89543 9 11V12C9 13.1046 8.10457 14 7 14H5V9Z" stroke="white" stroke-width="2"/>
<path d="M12 9H14C15.1046 9 16 9.89543 16 11V12C16 13.1046 15.1046 14 14 14H12V9Z" stroke="white" stroke-width="2"/>
<path d="M9 6H6C5.44772 6 5 6.44772 5 7V11" stroke="white" stroke-width="2"/>
<path d="M16 6H13C12.4477 6 12 6.44772 12 7V11" stroke="white" stroke-width="2"/>
</svg>
