<svg width="16" height="20" viewBox="0 0 16 20" fill="none" xmlns="http://www.w3.org/2000/svg">
<path fill-rule="evenodd" clip-rule="evenodd" d="M4.88892 2C3.78435 2 2.88892 2.89543 2.88892 4V16C2.88892 17.1046 3.78435 18 4.88892 18H11.8889C12.9935 18 13.8889 17.1046 13.8889 16V4C13.8889 2.89543 12.9935 2 11.8889 2H4.88892ZM0.888916 4C0.888916 1.79086 2.67978 0 4.88892 0H11.8889C14.0981 0 15.8889 1.79086 15.8889 4V16C15.8889 18.2091 14.0981 20 11.8889 20H4.88892C2.67978 20 0.888916 18.2091 0.888916 16V4Z" fill="black"/>
</svg>
