<svg width="166" height="9" viewBox="0 0 166 9" fill="none" xmlns="http://www.w3.org/2000/svg">
<path d="M1.17 8.29H0V1.62H2.93C3.60333 1.62 4.13333 1.82 4.52 2.22C4.91333 2.62 5.11 3.11667 5.11 3.71C5.11 4.29667 4.91333 4.79333 4.52 5.2C4.13333 5.6 3.60333 5.8 2.93 5.8H1.17V8.29ZM2.77 4.77C3.10333 4.77 3.37667 4.67333 3.59 4.48C3.80333 4.28667 3.91 4.03 3.91 3.71C3.91 3.39 3.80333 3.13333 3.59 2.94C3.37667 2.74667 3.10333 2.65 2.77 2.65H1.17V4.77H2.77Z" fill="black"/>
<path d="M10.654 8.29H6.08398V1.62H10.654V2.65H7.25398V4.38H10.584V5.41H7.25398V7.26H10.654V8.29Z" fill="black"/>
<path d="M18.7855 8.29H17.6155V3.34L15.5655 8.29H15.0655L13.0255 3.34V8.29H11.8555V1.62H13.5055L15.3155 6.01L17.1355 1.62H18.7855V8.29Z" fill="black"/>
<path d="M25.7651 7.44C25.1251 8.08667 24.3084 8.41 23.3151 8.41C22.3217 8.41 21.5051 8.08667 20.8651 7.44C20.2251 6.78667 19.9051 5.96 19.9051 4.96C19.9051 3.96 20.2251 3.13667 20.8651 2.49C21.5051 1.83667 22.3217 1.51 23.3151 1.51C24.3084 1.51 25.1251 1.83667 25.7651 2.49C26.4051 3.13667 26.7251 3.96 26.7251 4.96C26.7251 5.96 26.4051 6.78667 25.7651 7.44ZM23.3151 7.37C23.9751 7.37 24.5084 7.14333 24.9151 6.69C25.3217 6.23 25.5251 5.65333 25.5251 4.96C25.5251 4.26 25.3217 3.68333 24.9151 3.23C24.5084 2.77667 23.9751 2.55 23.3151 2.55C22.6484 2.55 22.1117 2.77667 21.7051 3.23C21.3051 3.68333 21.1051 4.26 21.1051 4.96C21.1051 5.66 21.3051 6.23667 21.7051 6.69C22.1117 7.14333 22.6484 7.37 23.3151 7.37Z" fill="black"/>
<path d="M33.6616 8.29H32.4916V5.38H29.0216V8.29H27.8516V1.62H29.0216V4.35H32.4916V1.62H33.6616V8.29Z" fill="black"/>
<path d="M37.8381 8.29H36.6681V2.65H34.6481V1.62H39.8581V2.65H37.8381V8.29Z" fill="black"/>
<path d="M45.618 8.41C44.4713 8.41 43.578 7.91 42.938 6.91L43.938 6.4C44.1046 6.68667 44.338 6.92 44.638 7.1C44.938 7.28 45.2646 7.37 45.618 7.37C46.2046 7.37 46.7046 7.19 47.118 6.83C47.5313 6.46333 47.7846 5.99 47.878 5.41H44.318V4.38H47.858C47.7446 3.83333 47.4813 3.39333 47.068 3.06C46.6613 2.72 46.178 2.55 45.618 2.55C45.2713 2.55 44.9446 2.64 44.638 2.82C44.338 3 44.1046 3.23333 43.938 3.52L42.938 3.01C43.5646 2.01 44.458 1.51 45.618 1.51C46.618 1.51 47.4513 1.83333 48.118 2.48C48.7846 3.12 49.118 3.94667 49.118 4.96C49.118 5.97333 48.7846 6.80333 48.118 7.45C47.4513 8.09 46.618 8.41 45.618 8.41Z" fill="black"/>
<path d="M49.4528 8.41V7.37C49.8395 7.37 50.1295 7.22 50.3228 6.92C50.5161 6.61333 50.6661 5.99 50.7728 5.05L51.1628 1.62H55.6928V8.29H54.5228V2.65H52.2128L51.9328 5.13C51.8528 5.81667 51.7395 6.38333 51.5928 6.83C51.4528 7.27667 51.2695 7.61333 51.0428 7.84C50.8228 8.06 50.5895 8.21 50.3428 8.29C50.1028 8.37 49.8061 8.41 49.4528 8.41Z" fill="black"/>
<path d="M61.6794 8.29H57.1094V1.62H61.6794V2.65H58.2794V4.38H61.6094V5.41H58.2794V7.26H61.6794V8.29Z" fill="black"/>
<path d="M68.3109 8.29H66.8709L64.6309 5.48L64.0509 6.16V8.29H62.8809V1.62H64.0509V4.8L66.6609 1.62H68.1109L65.4009 4.77L68.3109 8.29Z" fill="black"/>
<path d="M71.8518 8.29H70.6818V2.65H68.6618V1.62H73.8718V2.65H71.8518V8.29Z" fill="black"/>
<path d="M76.0333 8.29H74.8633V1.62H77.7933C78.4666 1.62 78.9966 1.82 79.3833 2.22C79.7766 2.62 79.9733 3.11667 79.9733 3.71C79.9733 4.29667 79.7766 4.79333 79.3833 5.2C78.9966 5.6 78.4666 5.8 77.7933 5.8H76.0333V8.29ZM77.6333 4.77C77.9666 4.77 78.2399 4.67333 78.4533 4.48C78.6666 4.28667 78.7733 4.03 78.7733 3.71C78.7733 3.39 78.6666 3.13333 78.4533 2.94C78.2399 2.74667 77.9666 2.65 77.6333 2.65H76.0333V4.77H77.6333Z" fill="black"/>
<path d="M86.5073 7.44C85.8673 8.08667 85.0506 8.41 84.0573 8.41C83.0639 8.41 82.2473 8.08667 81.6073 7.44C80.9673 6.78667 80.6473 5.96 80.6473 4.96C80.6473 3.96 80.9673 3.13667 81.6073 2.49C82.2473 1.83667 83.0639 1.51 84.0573 1.51C85.0506 1.51 85.8673 1.83667 86.5073 2.49C87.1473 3.13667 87.4673 3.96 87.4673 4.96C87.4673 5.96 87.1473 6.78667 86.5073 7.44ZM84.0573 7.37C84.7173 7.37 85.2506 7.14333 85.6573 6.69C86.0639 6.23 86.2673 5.65333 86.2673 4.96C86.2673 4.26 86.0639 3.68333 85.6573 3.23C85.2506 2.77667 84.7173 2.55 84.0573 2.55C83.3906 2.55 82.8539 2.77667 82.4473 3.23C82.0473 3.68333 81.8473 4.26 81.8473 4.96C81.8473 5.66 82.0473 6.23667 82.4473 6.69C82.8539 7.14333 83.3906 7.37 84.0573 7.37Z" fill="black"/>
<path d="M94.4037 8.29H93.2337V5.38H89.7637V8.29H88.5938V1.62H89.7637V4.35H93.2337V1.62H94.4037V8.29Z" fill="black"/>
<path d="M101.63 8.29H100.46V5.38H96.9903V8.29H95.8203V1.62H96.9903V4.35H100.46V1.62H101.63V8.29Z" fill="black"/>
<path d="M108.607 7.44C107.967 8.08667 107.15 8.41 106.157 8.41C105.164 8.41 104.347 8.08667 103.707 7.44C103.067 6.78667 102.747 5.96 102.747 4.96C102.747 3.96 103.067 3.13667 103.707 2.49C104.347 1.83667 105.164 1.51 106.157 1.51C107.15 1.51 107.967 1.83667 108.607 2.49C109.247 3.13667 109.567 3.96 109.567 4.96C109.567 5.96 109.247 6.78667 108.607 7.44ZM106.157 7.37C106.817 7.37 107.35 7.14333 107.757 6.69C108.164 6.23 108.367 5.65333 108.367 4.96C108.367 4.26 108.164 3.68333 107.757 3.23C107.35 2.77667 106.817 2.55 106.157 2.55C105.49 2.55 104.954 2.77667 104.547 3.23C104.147 3.68333 103.947 4.26 103.947 4.96C103.947 5.66 104.147 6.23667 104.547 6.69C104.954 7.14333 105.49 7.37 106.157 7.37Z" fill="black"/>
<path d="M111.823 8.29H110.693V1.62H111.863V6.25L115.273 1.62H116.473V8.29H115.303V3.53L111.823 8.29ZM115.333 0.4C114.9 0.986667 114.317 1.28 113.583 1.28C112.857 1.28 112.27 0.986667 111.823 0.4L112.303 0C112.623 0.44 113.05 0.66 113.583 0.66C114.117 0.66 114.54 0.44 114.853 0L115.333 0.4Z" fill="black"/>
<path d="M123.219 8.29H122.049V2.65H120.029V1.62H125.239V2.65H123.219V8.29Z" fill="black"/>
<path d="M130.8 8.29H126.23V1.62H130.8V2.65H127.4V4.38H130.73V5.41H127.4V7.26H130.8V8.29Z" fill="black"/>
<path d="M137.862 8.29H136.462L134.592 5.68L132.722 8.29H131.322L133.822 4.87L131.472 1.62H132.872L134.592 4.07L136.302 1.62H137.712L135.372 4.86L137.862 8.29Z" fill="black"/>
<path d="M144.423 8.29H143.253V5.38H139.783V8.29H138.613V1.62H139.783V4.35H143.253V1.62H144.423V8.29Z" fill="black"/>
<path d="M146.97 8.29H145.84V1.62H147.01V6.25L150.42 1.62H151.62V8.29H150.45V3.53L146.97 8.29Z" fill="black"/>
<path d="M158.467 8.29H157.027L154.787 5.48L154.207 6.16V8.29H153.037V1.62H154.207V4.8L156.817 1.62H158.267L155.557 4.77L158.467 8.29Z" fill="black"/>
<path d="M160.378 8.29H159.248V1.62H160.418V6.25L163.828 1.62H165.028V8.29H163.858V3.53L160.378 8.29Z" fill="black"/>
</svg>
