<svg width="20" height="20" viewBox="0 0 20 20" fill="none" xmlns="http://www.w3.org/2000/svg">
<g clip-path="url(#clip0_6_8426)">
<path d="M17.7182 9.87044C18.2734 9.5003 18.6912 9.12391 19 8.78996V12.3076C19 13.1055 18.3272 14.0971 16.6239 14.9487C14.9803 15.7705 12.6398 16.3076 10 16.3076C7.36016 16.3076 5.01967 15.7705 3.37615 14.9487C1.67281 14.0971 1 13.1055 1 12.3076V8.78996C1.30876 9.12391 1.72663 9.5003 2.28184 9.87044C3.77073 10.863 6.18326 11.7692 10 11.7692C13.8167 11.7692 16.2293 10.863 17.7182 9.87044Z" stroke="black" stroke-width="2"/>
<path d="M19 7.30762C19 8.1055 18.3272 9.09705 16.6239 9.94872C14.9803 10.7705 12.6398 11.3076 10 11.3076C7.36016 11.3076 5.01967 10.7705 3.37615 9.94872C1.67281 9.09705 1 8.1055 1 7.30762C1 6.50973 1.67281 5.51818 3.37615 4.66651C5.01967 3.84475 7.36016 3.30762 10 3.30762C12.6398 3.30762 14.9803 3.84475 16.6239 4.66651C18.3272 5.51818 19 6.50973 19 7.30762Z" stroke="black" stroke-width="2"/>
<path d="M3 14.3076L1 16.9743M5 15.641L3 18.3076" stroke="black"/>
<path d="M17 18.3076L15 15.641M19 16.9743L17 14.3076" stroke="black"/>
<path d="M5.38468 7.69216L1.53867 6.59307" stroke="black"/>
<path d="M18.6311 6.59297L14.6156 7.69209" stroke="black"/>
<ellipse cx="10" cy="7.30762" rx="2" ry="1" fill="black"/>
</g>
<defs>
<clipPath id="clip0_6_8426">
<rect width="20" height="20" fill="white"/>
</clipPath>
</defs>
</svg>
